<?xml version="1.0" encoding="UTF-8"?>
<!DOCTYPE svg PUBLIC "-//W3C//DTD SVG 1.1//EN" "http://www.w3.org/Graphics/SVG/1.1/DTD/svg11.dtd">
<!-- Creator: CorelDRAW -->
<svg xmlns="http://www.w3.org/2000/svg" xml:space="preserve" width="2397px" height="317px" version="1.1" shape-rendering="geometricPrecision" text-rendering="geometricPrecision" image-rendering="optimizeQuality" fill-rule="evenodd" clip-rule="evenodd"
viewBox="0 0 3407.71 450.88"
 xmlns:xlink="http://www.w3.org/1999/xlink"
 xmlns:xodm="http://www.corel.com/coreldraw/odm/2003">
 <g id="Camada_x0020_1">
  <metadata id="CorelCorpID_0Corel-Layer"/>
  <path fill="#FFAB24" d="M337.3 246.78c8.29,7.18 22.57,25.27 27.09,35.19 1.03,2.26 1.04,4.61 0.02,6.87 -1.02,2.27 -2.78,3.82 -5.15,4.55 -3.84,1.18 -7.72,2.07 -11.59,3.12 -11.83,3.22 -23.71,6.27 -35.6,9.31 -34.27,8.75 -68.62,17.22 -102.99,25.58 -34.41,8.37 -68.85,16.64 -103.37,24.59 -12,2.76 -24.01,5.5 -36.06,8.05 -4.52,0.96 -8.98,2.13 -13.56,2.81 -3.53,0.53 -6.85,-1.13 -8.55,-4.26 -7.67,-14.14 -14.69,-29.39 -21.33,-44.04 -3.75,-8.26 -7.42,-16.6 -10.81,-25.02 -2.26,-5.6 -5.04,-12.38 -6.27,-18.27 -0.91,-4.34 1.74,-8.62 6.02,-9.76 9.27,-2.45 22.08,-3.25 31.73,-4.04 9.44,-0.78 18.89,-1.37 28.35,-1.98 13.53,-0.87 27.06,-1.61 40.6,-2.32 8.06,-0.43 16.12,-0.71 24.16,-1.36 32.36,-2.65 64.77,-4.72 97.17,-6.8 20.91,-1.33 41.83,-2.62 62.76,-3.57 7.45,-0.34 14.91,-0.65 22.37,-0.76 3.46,-0.06 7.12,-0.27 10.55,0.14 1.73,0.21 3.15,0.84 4.46,1.97z"/>
  <path fill="#1E7BCB" d="M86.46 162.58c4.44,-1.4 8.99,-2.4 13.51,-3.53 10.37,-2.59 20.78,-5.02 31.19,-7.42 28.99,-6.69 58.03,-13.09 87.11,-19.35 28.76,-6.19 57.55,-12.27 86.42,-17.97 10.1,-2 20.2,-3.96 30.34,-5.72 3.35,-0.58 6.65,-1.26 10.02,-1.7 4.3,-0.57 8.28,2.23 9.22,6.46 3.52,15.85 7.83,31.51 11.53,47.32 3.1,13.29 7.37,29.61 8.11,43.11 0.25,4.52 -3.18,8.43 -7.7,8.77 -16.85,1.26 -33.73,1.97 -50.61,2.79 -29.79,1.46 -59.6,2.72 -89.41,3.8 -28.88,1.05 -57.76,1.98 -86.66,2.33 -10.32,0.12 -20.65,0.19 -30.97,-0.05 -4.44,-0.1 -8.93,-0.1 -13.34,-0.63 -3.2,-0.38 -5.73,-2.39 -6.84,-5.41 -2.85,-7.8 -3.57,-15.78 -5.18,-23.83 -1.57,-7.84 -4.37,-14.78 -2.33,-23.02 0.72,-2.91 2.74,-5.06 5.59,-5.95z"/>
  <path fill="#6CAF01" d="M302.01 79.67c-3.29,1.04 -6.62,1.83 -9.94,2.74 -9.94,2.76 -19.93,5.36 -29.93,7.94 -28.67,7.4 -57.41,14.52 -86.18,21.53 -28.82,7.03 -57.66,13.96 -86.58,20.56 -10.14,2.31 -20.27,4.6 -30.45,6.7 -3.08,0.64 -6.12,1.38 -9.21,1.93 -4.5,0.81 -8.81,-2.17 -9.66,-6.66l-8.67 -45.98c-0.81,-4.25 1.75,-8.38 5.92,-9.56 3.12,-0.88 6.28,-1.54 9.43,-2.29 9.59,-2.28 19.24,-4.33 28.89,-6.35 27.58,-5.78 55.25,-11.15 82.93,-16.41 28.22,-5.36 56.47,-10.58 84.77,-15.5 10.39,-1.81 20.77,-3.59 31.18,-5.22 4.58,-0.72 9.14,-1.51 13.74,-2.02 3.41,-0.39 6.55,1.23 8.21,4.24 5.25,9.47 9.54,24.35 11.27,35.08 0.66,4.11 -1.75,8.02 -5.72,9.27z"/>
  <path fill="#FF0066" d="M411.44 335.34c-0.73,8.21 -2.71,17.06 -4.51,25.11 -1.51,6.77 -3.16,13.52 -4.86,20.25 -4.23,16.81 -8.86,33.52 -13.64,50.18 -1.01,3.52 -4.03,5.89 -7.69,6.03l-366.07 13.97c-4.02,0.15 -7.51,-2.5 -8.42,-6.43l-6.03 -25.64c-1.02,-4.38 1.61,-8.78 5.94,-9.95 6.54,-1.77 13.17,-3.17 19.77,-4.7 16.07,-3.72 32.19,-7.28 48.31,-10.82 44.8,-9.81 89.66,-19.32 134.55,-28.69 44.08,-9.21 88.19,-18.3 132.37,-27 15.17,-3 30.36,-5.96 45.58,-8.7 4.73,-0.86 9.46,-1.7 14.2,-2.43 0.28,-0.04 0.57,-0.09 0.85,-0.14 2.62,-0.43 5.07,0.31 7.02,2.12 1.95,1.81 2.86,4.19 2.63,6.84z"/>
  <path fill="white" fill-rule="nonzero" d="M970.86 127.33c37.07,0 67.16,11.28 89.18,33.84 22.03,22.57 32.77,53.72 32.77,94.02l0 175.14 -91.33 0 0 -162.79c0,-19.34 -4.83,-34.38 -15.04,-45.12 -10.21,-10.21 -24.71,-15.58 -42.44,-15.58 -17.73,0 -31.7,5.37 -41.91,15.58 -10.2,10.74 -15.58,25.78 -15.58,45.12l0 162.79 -91.33 0 0 -162.79c0,-19.34 -4.83,-34.38 -15.04,-45.12 -10.21,-10.21 -24.71,-15.58 -42.44,-15.58 -17.73,0 -31.7,5.37 -41.91,15.58 -10.2,10.74 -15.58,25.78 -15.58,45.12l0 162.79 -91.86 0 0 -299.78 91.86 0 0 37.61c9.14,-12.36 21.49,-22.57 36.54,-30.09 15.04,-6.98 32.23,-10.74 51.03,-10.74 22.57,0 42.98,4.83 60.71,14.5 17.73,9.67 31.16,23.64 41.37,41.37 10.21,-16.66 24.71,-30.09 42.44,-40.3 17.73,-10.2 37.61,-15.57 58.56,-15.57z"/>
  <path id="_1" fill="white" fill-rule="nonzero" d="M1203.48 99.39c-16.11,0 -29.01,-4.84 -39.21,-14.51 -10.21,-9.13 -15.58,-20.95 -15.58,-34.92 0,-14.5 5.37,-26.32 15.58,-35.99 10.2,-9.13 23.1,-13.97 39.21,-13.97 15.59,0 29.02,4.84 39.22,13.97 10.21,9.67 15.05,21.49 15.05,35.99 0,13.97 -4.84,25.79 -15.05,34.92 -10.2,9.67 -23.63,14.51 -39.22,14.51zm45.67 31.16l0 299.78 -91.87 0 0 -299.78 91.87 0z"/>
  <path id="_2" fill="white" fill-rule="nonzero" d="M2092.55 275.6c0,8.6 -0.54,17.73 -1.62,26.87l-207.91 0c1.61,18.8 7.52,32.77 18.27,42.44 10.21,10.21 23.1,15.04 38.68,15.04 23.1,0 38.68,-9.67 47.81,-29.01l97.78 0c-4.83,19.88 -13.97,37.61 -26.86,53.19 -13.43,15.57 -29.55,27.93 -49.43,37.07 -19.88,9.13 -41.9,13.43 -66.08,13.43 -29.55,0 -55.33,-6.45 -78.44,-18.81 -23.1,-12.35 -40.82,-30.62 -53.72,-53.72 -12.89,-23.1 -19.34,-50.5 -19.34,-81.66 0,-31.16 6.45,-58.56 19.34,-81.66 12.36,-23.1 30.09,-41.37 53.19,-53.73 23.1,-12.35 49.42,-18.8 78.97,-18.8 29.01,0 54.8,5.91 77.37,18.27 22.56,12.35 40.29,29.55 53.18,52.11 12.36,22.56 18.81,48.89 18.81,78.97zm-94.02 -24.17c0,-15.58 -5.37,-28.48 -16.12,-37.61 -10.74,-9.13 -24.17,-13.97 -40.29,-13.97 -15.58,0 -28.48,4.3 -38.68,13.43 -10.75,9.14 -17.19,21.49 -19.88,38.15l114.97 0z"/>
  <path id="_3" fill="white" fill-rule="nonzero" d="M2323.56 127.33c34.92,0 63.39,11.28 84.34,33.84 20.96,23.1 31.16,54.26 31.16,94.02l0 175.14 -91.33 0 0 -162.79c0,-19.87 -5.37,-35.45 -15.58,-46.74 -10.2,-11.28 -24.17,-16.65 -41.9,-16.65 -17.73,0 -31.7,5.37 -41.91,16.65 -10.2,11.29 -15.58,26.87 -15.58,46.74l0 162.79 -91.86 0 0 -299.78 91.86 0 0 39.75c9.14,-13.43 22.03,-23.63 37.61,-31.69 15.58,-7.52 33.31,-11.28 53.19,-11.28z"/>
  <path id="_4" fill="white" fill-rule="nonzero" d="M2670.08 352.43l0 77.9 -46.74 0c-33.31,0 -59.1,-8.06 -77.9,-24.72 -18.81,-16.11 -27.94,-42.44 -27.94,-79.51l0 -119.26 -36.53 0 0 -76.29 36.53 0 0 -73.07 91.87 0 0 73.07 60.17 0 0 76.29 -60.17 0 0 120.34c0,9.13 2.15,15.58 6.45,19.34 4.29,3.76 11.28,5.91 21.49,5.91l32.77 0z"/>
  <path id="_5" fill="white" fill-rule="nonzero" d="M2812.98 180.51c10.75,-16.65 24.18,-29.55 40.3,-39.22 16.11,-9.13 33.84,-13.96 53.72,-13.96l0 97.23 -25.25 0c-23.1,0 -40.29,4.84 -51.57,14.51 -11.29,10.21 -17.2,27.4 -17.2,52.11l0 139.15 -91.86 0 0 -299.78 91.86 0 0 49.96z"/>
  <path id="_6" fill="white" fill-rule="nonzero" d="M2932.79 279.9c0,-30.62 5.91,-58.02 17.73,-81.12 11.28,-23.1 27.4,-41.37 47.27,-53.73 19.88,-12.35 42.45,-18.8 67.16,-18.8 20.95,0 39.76,4.3 55.87,12.89 15.58,8.6 27.94,19.88 36.54,33.85l0 -42.44 91.86 0 0 299.78 -91.86 0 0 -42.44c-9.14,13.96 -21.5,25.25 -37.08,33.84 -16.11,8.6 -34.91,12.9 -55.87,12.9 -24.17,0 -46.74,-6.45 -66.62,-19.34 -19.87,-12.36 -35.99,-30.63 -47.27,-54.26 -11.82,-23.11 -17.73,-50.51 -17.73,-81.13zm224.57 0.54c0,-23.1 -6.45,-40.83 -18.81,-54.26 -12.89,-13.43 -28.47,-19.88 -46.74,-19.88 -18.27,0 -33.84,6.45 -46.2,19.34 -12.89,13.43 -19.34,31.16 -19.34,54.26 0,23.1 6.45,40.83 19.34,54.26 12.36,13.43 27.93,20.42 46.2,20.42 18.27,0 33.85,-6.45 46.74,-19.88 12.36,-13.43 18.81,-31.16 18.81,-54.26z"/>
  <polygon id="_7" fill="white" fill-rule="nonzero" points="3407.71,32.77 3407.71,430.33 3315.84,430.33 3315.84,32.77 "/>
  <path id="_8" fill="white" fill-rule="nonzero" d="M1385 241.22c0,-37.07 8.06,-70.38 24.18,-99.93 16.11,-29.01 38.68,-51.57 67.69,-68.23 28.47,-16.11 61.24,-24.17 97.78,-24.17 44.59,0 83.27,11.82 114.96,35.46 31.7,23.63 53.19,55.87 63.94,96.7l-101 0c-7.52,-15.58 -18.27,-27.94 -31.7,-36 -13.97,-8.05 -29.55,-12.35 -47.28,-12.35 -28.47,0 -51.04,9.67 -68.77,29.54 -17.72,19.88 -26.32,46.21 -26.32,78.98 0,32.77 8.6,59.1 26.32,78.97 17.73,19.88 40.3,29.55 68.77,29.55 17.73,0 33.31,-4.3 47.28,-12.35 13.43,-8.06 24.18,-20.42 31.7,-36l101 0c-10.75,40.83 -32.24,73.07 -63.94,96.17 -31.69,23.64 -70.37,35.45 -114.96,35.45 -36.54,0 -69.31,-8.05 -97.78,-24.71 -29.01,-16.12 -51.58,-38.68 -67.69,-67.69 -16.12,-29.01 -24.18,-62.32 -24.18,-99.39z"/>
  <path id="_9" fill="#6CAF01" fill-rule="nonzero" d="M1325.17 432.73c-9.02,0 -16.24,-2.7 -21.96,-8.12 -5.71,-5.11 -8.72,-11.72 -8.72,-19.54 0,-8.12 3.01,-14.74 8.72,-20.15 5.72,-5.42 12.94,-8.13 21.96,-8.13 8.72,0 16.24,2.71 21.95,8.13 5.72,5.41 8.42,12.03 8.42,20.15 0,7.82 -2.7,14.43 -8.42,19.54 -5.71,5.42 -13.23,8.12 -21.95,8.12z"/>
 </g>
</svg>
