<?xml version="1.0" encoding="UTF-8"?>
<!DOCTYPE svg PUBLIC "-//W3C//DTD SVG 1.1//EN" "http://www.w3.org/Graphics/SVG/1.1/DTD/svg11.dtd">
<!-- Creator: CorelDRAW -->
<svg xmlns="http://www.w3.org/2000/svg" xml:space="preserve" width="181.59mm" height="47.0624mm" version="1.1" style="shape-rendering:geometricPrecision; text-rendering:geometricPrecision; image-rendering:optimizeQuality; fill-rule:evenodd; clip-rule:evenodd"
viewBox="0 0 4208.23 1090.64"
 xmlns:xlink="http://www.w3.org/1999/xlink"
 xmlns:xodm="http://www.corel.com/coreldraw/odm/2003">
 <defs>
  <style type="text/css">
   <![CDATA[
    .str0 {stroke:#FEFEFE;stroke-width:34.76;stroke-miterlimit:22.9256}
    .fil5 {fill:#1E7BCC}
    .fil0 {fill:#1F1F1F}
    .fil1 {fill:#3F3F96}
    .fil6 {fill:#FF0066}
    .fil4 {fill:#FF2E2E}
    .fil2 {fill:#FF9D00}
    .fil3 {fill:#FF2E2E;fill-rule:nonzero}
   ]]>
  </style>
 </defs>
 <g id="Camada_x0020_1">
  <metadata id="CorelCorpID_0Corel-Layer"/>
  <g id="_2113462886816">
   <path class="fil0 str0" d="M63.85 189.61c28.04,-41.92 63.63,-75.84 106.28,-101.31 42.71,-25.51 88.69,-43.48 136.83,-54.39 44.38,-10.06 90.05,-16.53 135.54,-16.53 61.22,0 126.33,7.18 183.48,31.15 45.79,19.2 88.18,46.05 122.37,83.32 31.87,34.74 55.69,74.92 70.68,120.29l1.69 5.11c1.63,4.95 1.28,9.83 -1.04,14.48 -2.32,4.64 -5.97,7.76 -10.82,9.23l-173.73 52.82c-8.75,2.66 -20.09,-1.27 -21.46,-10.56 -15.27,-103.68 -77.47,-155.31 -204.33,-149.1 -92.86,4.54 -190.79,68.55 -184.35,142.46 11.38,130.51 266.02,139.33 368.99,171.26 139.81,43.36 267.34,121.34 256.08,302.97 -18.92,305.21 -508.61,330.67 -699.71,203.62 -70.42,-46.82 -114.35,-112.88 -129.25,-198.29 -1.61,-9.22 3.59,-18.11 12.21,-20.92l133.48 -43.41c16.92,-5.5 50.41,-23.12 60.67,-4.59 3.67,6.62 5.08,31.14 7.99,42.05 16.51,61.86 69.27,93.76 131.9,106.3 194.73,38.97 334.94,-120.71 191.98,-198.31 -97.26,-52.79 -250.7,-39.61 -383.7,-95.74 -157.18,-66.33 -202.83,-255.75 -111.76,-391.89z"/>
   <path class="fil1 str0" d="M1624.23 654.55c0,50.97 -5.49,101.62 -17.32,150.96 -11.53,48.11 -31.09,92.38 -59.19,131.54 -29.52,41.14 -67.9,71.32 -111.3,92.89 -52.62,26.14 -113.01,34.26 -170.34,34.26 -100.04,0 -208.19,-22.04 -278.63,-106.2 -69.59,-83.15 -88.27,-200.94 -88.27,-309.8 0,-97.38 2.47,-194.76 7.31,-291.99 4.89,-98.05 9.74,-196.11 14.58,-294.17 0.26,-5.19 2.22,-9.56 5.82,-12.96 3.6,-3.41 7.85,-4.98 12.59,-4.45l157.82 17.49c4.7,0.52 8.6,2.69 11.6,6.66 3,3.98 4.26,8.58 3.77,13.7 -5.13,52.55 -9.69,105.18 -13.82,157.84 -4.26,54.28 -8.4,108.58 -12.38,162.88 -3.69,50.33 -6.68,100.75 -8.71,151.2 -1.66,41.28 -2.9,82.69 -2.9,124.01 0,33.38 2.1,68.74 9.68,101.18 5.26,22.52 13.99,44.75 28.74,61.88 14.08,16.35 32.02,26.72 51.57,33.11 26.99,8.83 81.93,11.14 109.98,11.14 43.89,0 117.79,-9.25 147.76,-47.57 32.07,-41 38.24,-108.16 38.24,-159.74 0,-96.97 -2.36,-193.94 -7.27,-290.77 -4.9,-96.64 -11.23,-193.2 -18.92,-289.62 -0.41,-5.19 0.97,-9.82 4.11,-13.75 3.14,-3.93 7.17,-6.01 11.93,-6.31l151.38 -9.54c4.81,-0.3 9.04,1.45 12.52,5.07 3.49,3.62 5.27,8.14 5.27,13.39 0,35.42 0.25,70.85 0.73,106.27 0.54,40.3 1.02,80.6 1.46,120.9 0.54,49.84 1.02,99.68 1.46,149.51 0.56,63.66 0.73,127.33 0.73,190.99z"/>
   <path class="fil2 str0" d="M1850.33 883.72l319.24 7.74c4.73,0.18 8.75,2.41 11.81,6.53 3.06,4.13 4.32,9.01 3.69,14.37l-15.77 135.68c-1.1,9.49 -8.29,16.4 -16.67,16.03l-437.4 -19.08c-8.7,-0.38 -15.57,-8.54 -15.57,-18.47l0 -977.68c0,-10.18 7.27,-18.48 16.19,-18.48l167.16 0c4.6,0 8.56,1.94 11.73,5.74 3.17,3.8 4.67,8.41 4.44,13.66l-48.84 833.95z"/>
   <path class="fil3 str0" d="M2309.82 43.53c21.02,-15.41 46.71,-23.08 77.06,-23 30.36,0.08 54.62,12.51 72.8,37.3 8.78,11.97 14.24,25.38 16.37,40.24 2.14,14.86 1.15,30.04 -2.96,45.54 -4.12,15.5 -10.86,30.64 -20.24,45.4 -9.38,14.76 -21.94,27.92 -37.7,39.48 -8.76,6.42 -19.71,12.15 -32.85,17.18 -13.14,5.04 -26.81,7.51 -41.02,7.41 -14.21,-0.1 -28.51,-3.07 -42.91,-8.94 -14.4,-5.86 -27.24,-16.49 -38.52,-31.87 -10.03,-13.68 -15.02,-28.75 -14.97,-45.21 0.04,-16.46 3.1,-32.5 9.16,-48.11 6.06,-15.61 14.25,-30.16 24.56,-43.63 10.32,-13.48 20.73,-24.07 31.24,-31.77z"/>
   <path class="fil4 str0" d="M2277.37 1045.4l-9.43 -700.43c-0.13,-9.99 6.5,-18.3 14.95,-18.75l153.54 -8.14c4.47,-0.24 8.39,1.52 11.6,5.19 3.21,3.68 4.82,8.24 4.76,13.52l-8.08 702.06c-0.11,9.83 -6.7,17.81 -15.02,18.21l-136.04 6.51c-4.37,0.21 -8.2,-1.48 -11.39,-5.03 -3.18,-3.55 -4.83,-7.97 -4.9,-13.14z"/>
   <path class="fil5 str0" d="M2744.62 400.19l51.02 655.4c0.2,10.15 -7.36,18.06 -16.88,17.66l-156.31 -6.5c-4.8,-0.2 -8.98,-2.2 -12.45,-5.97 -3.48,-3.77 -5.28,-8.26 -5.39,-13.37l-17.28 -866.46c-0.19,-9.72 6.65,-17.41 15.72,-17.67l213.88 -6.3c6.73,-0.2 12.84,3.47 16.4,9.84l329.3 615.83 -54.53 -709.03c-0.27,-5.37 1.4,-9.97 4.92,-13.56 3.52,-3.59 7.91,-5.16 12.95,-4.63l187.56 19.46c9.47,0.98 16.98,9.9 16.82,19.98l-14.8 926.21c-0.15,9.16 -6.43,16.27 -14.96,16.92l-144.79 11.21c-6.73,0.52 -12.99,-2.9 -16.79,-9.16l-394.4 -639.86z"/>
   <path class="fil6 str0" d="M3739.78 658.01l-86.9 84.01 -1.45 273.71c-0.05,9.58 -6.83,17.49 -15.71,18.31l-137.09 12.67c-4.87,0.45 -9.22,-1.1 -12.88,-4.59 -3.66,-3.49 -5.61,-7.95 -5.77,-13.21l-29.8 -964.43c-0.31,-10.17 7.14,-18.74 16.6,-19.08l175.83 -6.34c4.87,-0.17 9.12,1.6 12.6,5.27 3.48,3.66 5.22,8.2 5.16,13.43l-5.2 442.27 368.21 -474.93c3.24,-4.18 7.52,-6.44 12.58,-6.63 5.06,-0.19 9.48,1.73 12.99,5.65l119.21 133.03c6.48,7.23 6.4,18.73 -0.18,25.85l-312.18 337.9 330.93 416.21c6.02,7.57 5.37,18.93 -1.47,25.65l-98.34 96.6c-3.55,3.49 -7.78,5.1 -12.58,4.8 -4.8,-0.3 -8.83,-2.43 -11.98,-6.34l-322.57 -399.82z"/>
  </g>
 </g>
</svg>
