<?xml version="1.0" encoding="UTF-8"?>
<!DOCTYPE svg PUBLIC "-//W3C//DTD SVG 1.1//EN" "http://www.w3.org/Graphics/SVG/1.1/DTD/svg11.dtd">
<!-- Creator: CorelDRAW -->
<svg xmlns="http://www.w3.org/2000/svg" xml:space="preserve" width="199.577mm" height="24.9999mm" version="1.1" style="shape-rendering:geometricPrecision; text-rendering:geometricPrecision; image-rendering:optimizeQuality; fill-rule:evenodd; clip-rule:evenodd"
viewBox="0 0 19517.85 2444.89"
 xmlns:xlink="http://www.w3.org/1999/xlink"
 xmlns:xodm="http://www.corel.com/coreldraw/odm/2003">
 <defs>
  <style type="text/css">
   <![CDATA[
    .fil2 {fill:#00CA72}
    .fil1 {fill:#1E7BCB}
    .fil3 {fill:#FF0066}
    .fil0 {fill:#FFAB24}
    .fil5 {fill:#00CA72;fill-rule:nonzero}
    .fil4 {fill:white;fill-rule:nonzero}
   ]]>
  </style>
 </defs>
 <g id="Camada_x0020_1">
  <metadata id="CorelCorpID_0Corel-Layer"/>
  <g id="_2035305943632">
   <path class="fil0" d="M1964.12 1256.39c48.27,41.8 131.44,147.12 157.75,204.91 5.99,13.16 6.03,26.83 0.09,40.02 -5.93,13.18 -16.18,22.23 -30,26.47 -22.33,6.86 -44.96,12.04 -67.46,18.15 -68.92,18.74 -138.09,36.54 -207.29,54.22 -199.58,50.98 -399.58,100.29 -599.73,148.97 -200.38,48.75 -400.92,96.89 -601.9,143.15 -69.9,16.1 -139.84,32.04 -210.01,46.92 -26.32,5.57 -52.29,12.36 -78.95,16.34 -20.55,3.08 -39.89,-6.56 -49.8,-24.83 -44.67,-82.3 -85.55,-171.1 -124.2,-256.41 -21.81,-48.14 -43.18,-96.7 -62.95,-145.74 -13.13,-32.58 -29.32,-72.05 -36.51,-106.35 -5.29,-25.29 10.11,-50.23 35.08,-56.84 53.97,-14.29 128.54,-18.92 184.72,-23.54 55.01,-4.53 110.01,-7.99 165.08,-11.52 78.79,-5.06 157.63,-9.36 236.46,-13.52 46.89,-2.47 93.86,-4.1 140.67,-7.92 188.43,-15.41 377.13,-27.48 565.8,-39.56 121.78,-7.78 243.58,-15.26 365.48,-20.79 43.4,-1.98 86.83,-3.78 130.27,-4.46 20.16,-0.31 41.45,-1.56 61.44,0.83 10.02,1.21 18.33,4.88 25.96,11.48z"/>
   <path class="fil1" d="M503.44 766.06c25.9,-8.16 52.39,-13.98 78.71,-20.55 60.38,-15.06 120.99,-29.22 181.63,-43.22 168.76,-38.96 337.9,-76.18 507.21,-112.64 167.49,-36.08 335.14,-71.47 503.24,-104.68 58.79,-11.62 117.63,-23.05 176.68,-33.27 19.48,-3.36 38.71,-7.34 58.33,-9.92 25.03,-3.3 48.22,12.96 53.69,37.59 20.49,92.31 45.61,183.5 67.13,275.58 18.06,77.36 42.94,172.39 47.25,251.03 1.45,26.34 -18.51,49.06 -44.82,51.03 -98.12,7.35 -196.44,11.48 -294.71,16.28 -173.51,8.5 -347.06,15.85 -520.66,22.14 -168.15,6.09 -336.35,11.48 -504.61,13.53 -60.12,0.72 -120.26,1.15 -180.37,-0.27 -25.86,-0.61 -51.97,-0.56 -77.67,-3.64 -18.61,-2.23 -33.37,-13.94 -39.8,-31.53 -16.6,-45.44 -20.79,-91.86 -30.18,-138.75 -9.16,-45.68 -25.42,-86.07 -13.55,-134.08 4.18,-16.91 15.92,-29.42 32.53,-34.64z"/>
   <path class="fil2" d="M1758.61 283.31c-19.14,6.04 -38.54,10.61 -57.86,15.95 -57.93,16.03 -116.08,31.17 -174.28,46.19 -166.96,43.09 -334.32,84.56 -501.84,125.4 -167.82,40.93 -335.78,81.26 -504.2,119.71 -59,13.47 -118.02,26.8 -177.28,39.04 -17.92,3.72 -35.62,8 -53.65,11.24 -26.16,4.68 -51.31,-12.65 -56.24,-38.78l-50.5 -267.77c-4.66,-24.77 10.23,-48.82 34.48,-55.68 18.19,-5.14 36.57,-8.95 54.93,-13.31 55.86,-13.27 112.03,-25.22 168.24,-37 160.6,-33.65 321.69,-64.94 482.91,-95.55 164.33,-31.22 328.83,-61.6 493.62,-90.29 60.46,-10.52 120.93,-20.87 181.55,-30.38 26.63,-4.19 53.18,-8.8 79.99,-11.78 19.88,-2.22 38.13,7.2 47.82,24.7 30.55,55.15 55.53,141.8 65.61,204.3 3.87,23.93 -10.18,46.7 -33.3,53.99z"/>
   <path class="fil3" d="M2395.81 1772.09c-4.24,47.77 -15.75,99.3 -26.25,146.19 -8.82,39.44 -18.39,78.71 -28.27,117.89 -24.67,97.89 -51.61,195.2 -79.45,292.23 -5.89,20.5 -23.49,34.3 -44.79,35.11l-2131.61 81.34c-23.43,0.89 -43.72,-14.57 -49.07,-37.41l-35.07 -149.35c-5.98,-25.47 9.33,-51.1 34.57,-57.92 38.08,-10.3 76.67,-18.43 115.1,-27.33 93.62,-21.69 187.46,-42.43 281.33,-63.01 260.86,-57.16 522.11,-112.52 783.51,-167.1 256.68,-53.6 513.51,-106.53 770.77,-157.23 88.37,-17.42 176.77,-34.67 265.41,-50.66 27.54,-4.97 55.09,-9.85 82.73,-14.13 1.63,-0.24 3.27,-0.52 4.9,-0.79 15.3,-2.51 29.52,1.78 40.89,12.32 11.36,10.55 16.68,24.41 15.31,39.86z"/>
  </g>
  <path class="fil4" d="M4220.56 2347.08c-160.59,0 -304.49,-26.07 -431.71,-78.21 -127.22,-52.13 -228.89,-129.31 -305.02,-231.5 -76.12,-102.19 -116.27,-225.23 -120.45,-369.14l569.37 0c8.34,81.34 36.5,143.38 84.47,186.13 47.97,42.76 110.53,64.13 187.7,64.13 79.25,0 141.81,-18.25 187.7,-54.75 45.89,-36.5 68.83,-87.08 68.83,-151.73 0,-54.23 -18.25,-99.07 -54.75,-134.52 -36.5,-35.45 -81.34,-64.65 -134.53,-87.6 -53.18,-22.94 -128.78,-49.01 -226.8,-78.21 -141.82,-43.79 -257.57,-87.6 -347.25,-131.39 -89.68,-43.8 -166.84,-108.46 -231.49,-193.96 -64.65,-85.51 -96.98,-197.09 -96.98,-334.74 0,-204.38 74.04,-364.46 222.11,-480.21 148.07,-115.75 340.99,-173.63 578.75,-173.63 241.93,0 436.93,57.88 585.01,173.63 148.07,115.75 227.33,276.86 237.75,483.34l-578.75 0c-4.17,-70.91 -30.24,-126.7 -78.21,-167.37 -47.97,-40.67 -109.49,-61.01 -184.57,-61.01 -64.65,0 -116.8,17.2 -156.42,51.62 -39.62,34.41 -59.43,83.95 -59.43,148.6 0,70.91 33.37,126.18 100.1,165.8 66.74,39.63 171.02,82.37 312.84,128.26 141.81,47.97 257.05,93.85 345.68,137.65 88.64,43.8 165.28,107.41 229.94,190.83 64.65,83.43 96.97,190.83 96.97,322.23 0,125.13 -31.8,238.8 -95.41,340.98 -63.62,102.2 -155.9,183.53 -276.86,244.01 -120.96,60.49 -263.82,90.73 -428.59,90.73z"/>
  <path id="_1" class="fil4" d="M5875.46 129.07l0 1313.92c0,131.39 32.33,232.54 96.98,303.45 64.65,70.91 159.54,106.36 284.67,106.36 125.14,0 221.08,-35.45 287.81,-106.36 66.74,-70.91 100.1,-172.06 100.1,-303.45l0 -1313.92 534.95 0 0 1310.79c0,196.04 -41.71,361.84 -125.14,497.41 -83.42,135.56 -195.52,237.75 -336.29,306.58 -140.78,68.82 -297.72,103.23 -470.82,103.23 -173.11,0 -327.96,-33.89 -464.57,-101.67 -136.6,-67.78 -244.53,-169.98 -323.78,-306.58 -79.25,-136.6 -118.88,-302.93 -118.88,-498.97l0 -1310.79 534.95 0z"/>
  <polygon id="_2" class="fil4" points="8090.34,1912.24 8791.09,1912.24 8791.09,2325.18 7555.39,2325.18 7555.39,129.07 8090.34,129.07 "/>
  <polygon id="_3" class="fil4" points="9582.57,129.07 9582.57,2325.18 9047.61,2325.18 9047.61,129.07 "/>
  <polygon id="_4" class="fil4" points="11935.1,2325.18 11400.14,2325.18 10505.44,970.6 10505.44,2325.18 9970.48,2325.18 9970.48,129.07 10505.44,129.07 11400.14,1489.91 11400.14,129.07 11935.1,129.07 "/>
  <polygon id="_5" class="fil4" points="13596.26,2325.18 12857.97,1355.39 12857.97,2325.18 12323.01,2325.18 12323.01,129.07 12857.97,129.07 12857.97,1092.61 13590,129.07 14218.8,129.07 13367.88,1205.23 14250.08,2325.18 "/>
  <path id="_6" class="fil4" d="M14861.18 1708.73c0,-121.42 26.27,-229.71 78.8,-324.86 52.54,-95.16 125.8,-169.29 219.79,-222.42 93.98,-53.12 200.52,-79.68 319.61,-79.68 145.94,0 270.87,38.53 374.78,115.58 103.91,77.05 173.37,182.14 208.4,315.24l-329.25 0c-24.52,-51.37 -59.24,-90.49 -104.2,-117.34 -44.95,-26.85 -96.03,-40.28 -153.24,-40.28 -92.23,0 -166.96,32.11 -224.17,96.32 -57.2,64.21 -85.81,150.03 -85.81,257.44 0,107.42 28.61,193.23 85.81,257.44 57.21,64.22 131.94,96.33 224.17,96.33 57.21,0 108.29,-13.43 153.24,-40.28 44.96,-26.85 79.68,-65.96 104.2,-117.34l329.25 0c-35.03,133.1 -104.49,237.88 -208.4,314.36 -103.92,76.48 -228.84,114.7 -374.78,114.7 -119.09,0 -225.62,-26.56 -319.61,-79.68 -93.98,-53.12 -167.25,-126.97 -219.79,-221.54 -52.54,-94.57 -78.8,-202.56 -78.8,-323.99z"/>
  <path id="_7" class="fil4" d="M16827.87 2337.45c-115.58,0 -221.54,-26.85 -317.86,-80.56 -96.33,-53.71 -172.8,-128.72 -229.42,-225.04 -56.62,-96.32 -84.94,-204.61 -84.94,-324.87 0,-120.25 28.31,-228.25 84.94,-323.99 56.62,-95.73 133.09,-170.46 229.42,-224.17 96.32,-53.7 202.27,-80.55 317.86,-80.55 115.58,0 221.54,26.85 317.86,80.55 96.32,53.71 172.21,128.44 227.67,224.17 55.46,95.74 83.19,203.74 83.19,323.99 0,120.26 -28.02,228.55 -84.06,324.87 -56.05,96.32 -131.94,171.33 -227.67,225.04 -95.74,53.71 -201.4,80.56 -316.99,80.56zm0 -273.2c98.07,0 176.59,-32.69 235.55,-98.08 58.96,-65.38 88.44,-151.77 88.44,-259.19 0,-108.58 -29.48,-195.27 -88.44,-260.07 -58.96,-64.79 -137.48,-97.19 -235.55,-97.19 -99.24,0 -178.34,32.11 -237.3,96.32 -58.96,64.21 -88.44,151.19 -88.44,260.94 0,108.58 29.48,195.27 88.44,260.07 58.96,64.8 138.06,97.2 237.3,97.2z"/>
  <path id="_8" class="fil4" d="M18249.92 2325.18l-255.69 -464.09 -71.8 0 0 464.09 -299.47 0 0 -1229.4 502.62 0c96.9,0 179.5,16.93 247.8,50.79 68.3,33.86 119.38,80.27 153.24,139.22 33.86,58.96 50.79,124.64 50.79,197.02 0,81.73 -23.06,154.7 -69.17,218.92 -46.12,64.21 -114.13,109.75 -204.03,136.6l283.72 486.86 -338 0zm-327.49 -675.99l185.64 0c54.87,0 96.03,-13.43 123.47,-40.28 27.43,-26.85 41.15,-64.8 41.15,-113.83 0,-46.7 -13.72,-83.48 -41.15,-110.33 -27.44,-26.85 -68.59,-40.28 -123.47,-40.28l-185.64 0 0 304.73z"/>
  <polygon id="_9" class="fil4" points="19064.28,1335.71 19064.28,1584.39 19465.32,1584.39 19465.32,1815.56 19064.28,1815.56 19064.28,2085.26 19517.85,2085.26 19517.85,2325.18 18764.81,2325.18 18764.81,1095.78 19517.85,1095.78 19517.85,1335.71 "/>
  <path id="_10" class="fil5" d="M14558.21 2339.2c-52.54,0 -95.45,-15.47 -128.72,-46.41 -33.28,-30.94 -49.92,-69.17 -49.92,-114.7 0,-46.71 16.64,-85.82 49.92,-117.34 33.27,-31.53 76.18,-47.29 128.72,-47.29 51.37,0 93.69,15.76 126.97,47.29 33.27,31.52 49.91,70.63 49.91,117.34 0,45.53 -16.64,83.76 -49.91,114.7 -33.28,30.94 -75.6,46.41 -126.97,46.41z"/>
 </g>
</svg>
